<svg width="762" height="138" viewBox="0 0 762 138" fill="none" xmlns="http://www.w3.org/2000/svg">
<g clip-path="url(#clip0_57_269)">
<g filter="url(#filter0_d_57_269)">
<path d="M344.041 7.79086C336.15 9.22316 331.918 17.9443 335.45 25.5515C336.468 27.7477 337.55 28.989 339.523 30.2622C342.132 31.9173 344.359 32.4265 347.955 32.1719C351.773 31.9173 353.745 31.0261 356.418 28.3524C358.773 25.9652 359.536 23.9282 359.536 20.0451C359.568 14.5386 356.545 10.1462 351.55 8.39561C349.45 7.63171 346.236 7.37708 344.041 7.79086Z" fill="#B87E28"/>
</g>
<g filter="url(#filter1_d_57_269)">
<path d="M169.932 21.0315C169.582 21.0633 167.832 21.2861 166.05 21.4771C164.173 21.6999 162.645 22.05 162.455 22.2728C161.945 22.9094 162.2 77.4325 162.741 80.6154C163.918 87.6814 166.114 92.6149 169.995 97.0073C172.732 100.095 175.277 102.005 179.159 103.978C193.064 111.044 213.173 109.771 225.359 101.082C228.955 98.5351 232.9 93.3788 234.745 88.8272C237.227 82.7797 237.545 78.642 237.545 53.3061C237.514 31.9807 237.355 28.1294 236.241 25.7422C234.427 21.9227 228.382 20.2358 219.695 21.127C217.723 21.3498 215.432 21.6681 214.573 21.8272L213.077 22.1455L212.982 50.0595C212.886 77.9099 212.886 77.9736 212.186 80.0424C210.914 83.7664 208.209 86.7902 205.091 87.936C203.405 88.5726 199.077 89.05 198.186 88.6999C197.677 88.509 196.85 88.3816 196.277 88.3816C195.005 88.4453 191.091 86.1218 190.009 84.7213C188.832 83.1299 187.686 80.6472 187.241 78.7375C186.986 77.528 186.795 69.9527 186.636 52.8287C186.414 25.5194 186.445 26.0287 184.091 23.8961C182.818 22.7503 180.177 21.6363 177.6 21.127C176.2 20.8724 171.491 20.8087 169.932 21.0315Z" fill="#B87E28"/>
</g>
<g filter="url(#filter2_d_57_269)">
<path d="M385.214 22.4639C380.759 23.2278 377.068 26.8881 375.986 31.6625C375.509 33.7313 375.509 97.262 375.986 99.5218C376.495 101.941 377.609 103.692 379.359 104.806C381.427 106.142 382.382 106.461 385.373 106.906C389.35 107.511 398.768 106.715 399.436 105.697C399.564 105.506 399.723 98.8853 399.818 91.0235L399.977 76.7005L413.182 76.5413L426.386 76.3822L428.232 75.491C431.445 73.8995 432.432 71.8306 432.4 66.6743C432.4 63.7461 432.273 62.9822 431.382 60.4995C430.841 58.9399 430.3 57.5712 430.173 57.4758C430.077 57.3803 423.173 57.2211 414.836 57.1256L399.659 56.9665V49.3275V41.6886L415.25 41.5294C427.659 41.3703 431.095 41.243 432.114 40.8929C434.086 40.1608 435.964 38.0919 436.6 35.9275C437.364 33.2539 437.077 28.2568 435.932 24.7237L435.041 22.1138L410.986 22.1456C397.75 22.1774 386.168 22.3047 385.214 22.4639Z" fill="#FDFDFC"/>
</g>
<g filter="url(#filter3_d_57_269)">
<path d="M279.864 37.0737C276.205 37.4874 270.286 38.9198 267.295 40.0974C261.759 42.2618 256.414 46.1449 254.505 49.4233C253.327 51.3967 253.168 54.5796 253.168 76.7008C253.136 95.7663 253.327 99.8723 254.282 101.909C255.205 103.819 257.241 105.665 259.341 106.492C261.155 107.225 261.6 107.256 267.614 107.193C272.005 107.161 274.423 107.034 275.409 106.715L276.841 106.27L276.936 82.3663L277 58.4309L277.891 57.8262C280.373 56.1392 284.986 54.9934 288.168 55.3435C291.605 55.6936 293.959 57.1259 295.168 59.5768L295.932 61.1046L296.123 80.3611C296.282 97.5487 296.345 99.8086 296.855 101.304C297.586 103.532 299.527 105.506 302.009 106.492C303.791 107.193 304.236 107.256 310.091 107.225C314.259 107.193 316.805 107.034 317.886 106.747L319.477 106.302L319.573 82.8437C319.636 60.3088 319.605 59.2585 319 56.4257C317.218 48.182 312.064 42.6437 302.805 38.9834C299.209 37.5829 295.391 37.01 288.614 36.9145C285.114 36.8509 281.168 36.9145 279.864 37.0737Z" fill="#B87E28"/>
</g>
<g filter="url(#filter4_d_57_269)">
<path d="M475.386 36.9782C468.864 37.4875 463.836 38.506 458.841 40.2884C452.127 42.6437 447.673 45.9221 445.827 49.8053C445.159 51.2057 445.159 51.524 445.064 74.9183C445 91.3421 445.095 99.1402 445.318 100.318C446.05 103.755 449.168 106.397 453.368 107.129C457.314 107.797 466.859 107.097 468.164 106.079C468.45 105.824 468.545 100.7 468.545 82.3663V59.0038L469.914 58.3991C472.873 57.0941 483.277 55.2162 487.573 55.2162C489.864 55.2162 490.532 54.7706 491.455 52.638C491.995 51.3331 492.155 50.3145 492.186 47.8955C492.25 45.0309 492.186 44.7126 491.2 42.7074C490.055 40.3839 489.291 39.7155 486.3 38.3787C484.423 37.5193 479.491 36.6599 477.391 36.819C476.977 36.8509 476.086 36.9145 475.386 36.9782Z" fill="#FDFDFC"/>
</g>
<g filter="url(#filter5_d_57_269)">
<path d="M519.932 37.0737C511.023 37.9649 505.9 39.7155 503.1 42.8347C501.573 44.5217 500.523 47.2908 500.777 48.9459C501.255 52.1288 501.7 54.134 502.114 54.8661C502.782 56.1711 504.691 58.0808 505.295 58.0808C505.614 58.0808 507.65 57.5079 509.782 56.8076C514.268 55.3435 519.741 54.5796 525.723 54.5796C528.65 54.5796 529.732 54.7069 531.768 55.3753C536 56.7122 537.305 57.9535 537.718 61.1364L537.941 62.7278L531.482 63.4599C521.141 64.6057 517.227 65.0832 514.714 65.5924C506.759 67.2157 501.445 70.6214 498.868 75.7459C496.832 79.7882 496.291 83.2575 496.8 88.7958C497.118 91.9787 497.277 92.5516 498.645 95.2889C502.559 103.214 510.45 107.256 524.068 108.37C531.355 108.943 542.109 107.925 547.455 106.142C553.341 104.169 558.75 100.286 560.277 96.9758C560.945 95.5117 560.977 95.0979 561.073 80.0428C561.264 56.935 560.755 53.2428 556.682 47.7364C553.023 42.7711 546.945 39.3335 538.864 37.6466C535.364 36.9145 524.768 36.5962 519.932 37.0737ZM538.164 83.6395C538.195 86.5677 538.1 88.8913 537.909 89.2414C537.4 90.1962 534.918 90.8328 530.75 91.0556C524.132 91.4057 521.395 90.5145 520.059 87.5226C518.85 84.8808 519.773 82.048 522.223 80.8067C524.195 79.7882 533.359 78.4195 537.114 78.5787L538.068 78.6105L538.164 83.6395Z" fill="#FDFDFC"/>
</g>
<g filter="url(#filter6_d_57_269)">
<path d="M601.545 37.1052C598.777 37.4553 593.495 38.6329 591.523 39.3014C584.777 41.6567 578.223 46.1764 576.6 49.6458C576.25 50.3778 575.9 52.1284 575.741 54.07C575.391 58.3033 575.391 91.7237 575.741 97.1983C576.027 101.145 576.091 101.559 576.95 102.768C578.223 104.551 580.259 106.047 582.391 106.683C583.886 107.161 585.254 107.256 589.932 107.193C593.495 107.161 596.327 106.97 597.409 106.715L599.159 106.301L599.318 81.9522L599.477 57.6349L600.527 56.9028C601.1 56.5208 602.659 55.9797 603.964 55.6615C608.864 54.5793 612.65 56.0434 614.686 59.8311C615.386 61.0724 615.386 61.3588 615.545 80.9973L615.704 100.891L616.564 102.323C617.709 104.296 618.886 105.315 621.082 106.333C622.736 107.097 623.5 107.225 626.841 107.352C630.691 107.511 635.591 107.097 637.882 106.461L639.091 106.11L639.154 82.0159L639.25 57.9531L640.523 57.2211C641.223 56.8073 642.782 56.1707 644.023 55.8206C646.154 55.184 646.345 55.1522 648.764 55.6296C651.786 56.2344 653.186 57.2211 654.364 59.5446L655.159 61.1042L655.318 80.679L655.477 100.254L656.368 102.068C658.182 105.729 660.918 107.097 666.932 107.352C671.45 107.511 677.082 106.97 678.164 106.27L678.895 105.792L678.768 81.5384C678.641 54.9294 678.673 55.4068 676.636 50.9189C674.95 47.1313 671.418 43.1527 667.791 40.9883C664.991 39.3332 659.773 37.5508 656.05 37.0733C652.454 36.5959 645.264 36.8187 642.114 37.5189C637.627 38.5056 633.364 40.1926 629.832 42.3888C629.036 42.898 628.909 42.8662 625.982 41.3066C622.323 39.3332 618.25 37.9009 614.432 37.2643C611.377 36.7232 605.045 36.6596 601.545 37.1052Z" fill="#FDFDFC"/>
</g>
<g filter="url(#filter7_d_57_269)">
<path d="M719.75 37.1055C716.377 37.5511 710.968 39.1425 708.2 40.543C701.391 44.0124 696.936 48.6594 693.468 56.0119C691.05 61.1682 690 69.6984 690.891 77.401C692.068 87.8409 697.032 96.5302 704.827 101.782C712.75 107.097 722.518 109.23 734.132 108.211C741.068 107.606 744.823 106.779 748.323 105.124C753.159 102.832 755.291 99.7131 755.291 95.0024C755.291 93.4746 755.068 92.7425 754.114 90.8965C753.445 89.6233 752.395 88.0637 751.759 87.3634L750.614 86.1221L746.954 87.5226C744.95 88.3183 741.8 89.3368 739.954 89.8143C736.964 90.5782 736.073 90.6737 731.364 90.6737C726.304 90.6737 726.018 90.6418 723.091 89.6551C719.114 88.3183 716.918 86.7905 715.391 84.3397C714.754 83.2893 714.214 82.2708 714.214 82.1117C714.182 81.9207 716.664 81.3796 720.004 80.8703C723.186 80.3929 727.577 79.7245 729.773 79.4062C731.968 79.0561 736.773 78.3558 740.432 77.8147C747.623 76.7644 752.014 75.8095 753.318 75.0138C754.718 74.1544 756.532 72.2765 757.232 70.9715C757.868 69.8257 757.932 69.2528 757.9 65.0832C757.836 60.6271 757.804 60.3406 756.659 57.1577C754.495 51.0147 751.854 47.2271 747.209 43.6941C739.954 38.1877 730.091 35.8005 719.75 37.1055ZM727.545 54.2931C729.741 54.6432 731.841 55.7573 733.304 57.3487C734.195 58.3036 736.264 61.8684 736.041 62.0912C735.914 62.2185 725.636 64.001 717.841 65.2105C714.659 65.7197 712.623 65.8789 712.464 65.7197C712.082 65.3378 713.259 61.7093 714.341 59.7995C715.327 58.1126 717.236 56.4257 719.336 55.3435C722.136 53.9112 723.886 53.6884 727.545 54.2931Z" fill="#FDFDFC"/>
</g>
<g filter="url(#filter8_d_57_269)">
<path d="M340.318 38.8241C340.064 38.8877 338.791 39.1105 337.55 39.3015L335.227 39.6835V69.4117C335.227 89.6231 335.323 99.6174 335.577 100.54C336.15 102.832 337.932 104.869 340.477 106.111C342.45 107.097 343.055 107.225 345.886 107.352C349.132 107.479 358.041 106.683 358.518 106.206C358.677 106.047 358.741 92.4241 358.709 75.873L358.614 45.8264L357.436 43.5984C356.1 40.9884 355.527 40.511 352.568 39.4607C350.564 38.7604 349.864 38.6968 345.568 38.6968C342.959 38.7286 340.573 38.7922 340.318 38.8241Z" fill="#B87E28"/>
</g>
<g filter="url(#filter9_d_57_269)">
<mask id="mask0_57_269" style="mask-type:luminance" maskUnits="userSpaceOnUse" x="4" y="0" width="130" height="130">
<path d="M134 0H4V130H134V0Z" fill="white"/>
</mask>
<g mask="url(#mask0_57_269)">
<path d="M57.9288 0.649469C44.2585 3.01377 33.3375 8.73388 23.1039 19.03C9.43361 32.7583 3.17124 49.0034 4.08769 68.1466C5.00413 86.451 11.4192 100.179 25.395 113.144C32.8029 120.008 42.9601 125.424 53.4992 128.169C62.7401 130.61 76.5631 130.61 85.422 128.169C109.173 121.763 126.967 103.535 132.696 79.9682C134.299 73.1041 134.452 58.9945 133.001 52.1303C127.044 24.7502 107.264 5.53062 79.9234 0.725736C74.7302 -0.18948 63.2747 -0.265748 57.9288 0.649469Z" fill="#FDFDFC"/>
<path d="M36.5621 32.721C36.5069 32.8498 36.4885 47.4518 36.5069 65.1842L36.5621 97.4079L52.1441 97.4632L67.7077 97.5L67.7996 96.4505C67.8364 95.8612 67.8916 92.5836 67.91 89.1771C67.9285 83.3952 67.91 82.9716 67.6157 82.8796C67.4317 82.8428 66.4199 82.585 65.3528 82.3272C62.0231 81.5355 59.7786 80.4674 57.479 78.534C51.6658 73.6728 49.6237 65.2763 52.5304 58.1685C53.5054 55.7748 55.5106 53.0127 57.5894 51.2634C59.7786 49.4221 63.0901 47.9674 66.4566 47.3782L67.8364 47.1388L67.91 45.5737C67.9285 44.7082 67.91 41.4122 67.8364 38.245L67.7077 32.5H52.1808C39.9103 32.5 36.6173 32.5553 36.5621 32.721Z" fill="#05103D"/>
<path d="M70.1753 33.4589C70.1201 33.9936 70.0833 37.2943 70.1201 40.7979L70.1753 47.1411L71.9041 47.4731C72.842 47.639 74.0374 47.934 74.5708 48.1C75.9685 48.561 78.3042 49.7596 79.6099 50.7C84.6123 54.2773 87.4813 60.9894 86.6353 67.2035C85.8261 73.2702 82.4422 78.1198 77.1639 80.7752C76.0972 81.3099 72.7132 82.4717 72.235 82.4717C72.1063 82.4717 71.5546 82.6007 71.0397 82.7483L70.0833 83.0432L70.1201 90.2717L70.1753 97.5H85.7158H101.256L101.385 96.6333C101.477 96.1538 101.514 81.5497 101.495 64.1795L101.44 32.5922L85.8629 32.5368L70.2856 32.5L70.1753 33.4589Z" fill="#05103D"/>
<path d="M66.4166 49.99C63.2269 50.5614 60.6786 51.9437 58.2909 54.432C55.1011 57.7496 53.6399 61.6755 53.8537 66.3018C54.0676 70.7254 55.5644 74.0431 58.8255 77.1764C60.5539 78.8352 62.9239 80.1439 65.3831 80.8074C67.5393 81.3972 70.7647 81.3972 72.8318 80.8074C78.3737 79.2591 82.5257 74.8541 83.8622 69.1588C84.2364 67.4999 84.272 64.0901 83.9335 62.4313C82.5435 55.8144 77.9282 51.1697 71.5487 50.0085C70.337 49.7872 67.6641 49.7688 66.4166 49.99Z" fill="#B87E28"/>
</g>
</g>
</g>
<defs>
<filter id="filter0_d_57_269" x="328.192" y="3.59375" width="41.3446" height="40.6401" filterUnits="userSpaceOnUse" color-interpolation-filters="sRGB">
<feFlood flood-opacity="0" result="BackgroundImageFix"/>
<feColorMatrix in="SourceAlpha" type="matrix" values="0 0 0 0 0 0 0 0 0 0 0 0 0 0 0 0 0 0 127 0" result="hardAlpha"/>
<feOffset dx="2" dy="4"/>
<feGaussianBlur stdDeviation="4"/>
<feColorMatrix type="matrix" values="0 0 0 0 0 0 0 0 0 0 0 0 0 0 0 0 0 0 0.2 0"/>
<feBlend mode="normal" in2="BackgroundImageFix" result="effect1_dropShadow_57_269"/>
<feBlend mode="normal" in="SourceGraphic" in2="effect1_dropShadow_57_269" result="shape"/>
</filter>
<filter id="filter1_d_57_269" x="156.179" y="16.8936" width="91.3662" height="103.647" filterUnits="userSpaceOnUse" color-interpolation-filters="sRGB">
<feFlood flood-opacity="0" result="BackgroundImageFix"/>
<feColorMatrix in="SourceAlpha" type="matrix" values="0 0 0 0 0 0 0 0 0 0 0 0 0 0 0 0 0 0 127 0" result="hardAlpha"/>
<feOffset dx="2" dy="4"/>
<feGaussianBlur stdDeviation="4"/>
<feColorMatrix type="matrix" values="0 0 0 0 0 0 0 0 0 0 0 0 0 0 0 0 0 0 0.2 0"/>
<feBlend mode="normal" in2="BackgroundImageFix" result="effect1_dropShadow_57_269"/>
<feBlend mode="normal" in="SourceGraphic" in2="effect1_dropShadow_57_269" result="shape"/>
</filter>
<filter id="filter2_d_57_269" x="369.628" y="18.1138" width="77.3981" height="101.002" filterUnits="userSpaceOnUse" color-interpolation-filters="sRGB">
<feFlood flood-opacity="0" result="BackgroundImageFix"/>
<feColorMatrix in="SourceAlpha" type="matrix" values="0 0 0 0 0 0 0 0 0 0 0 0 0 0 0 0 0 0 127 0" result="hardAlpha"/>
<feOffset dx="2" dy="4"/>
<feGaussianBlur stdDeviation="4"/>
<feColorMatrix type="matrix" values="0 0 0 0 0 0 0 0 0 0 0 0 0 0 0 0 0 0 0.2 0"/>
<feBlend mode="normal" in2="BackgroundImageFix" result="effect1_dropShadow_57_269"/>
<feBlend mode="normal" in="SourceGraphic" in2="effect1_dropShadow_57_269" result="shape"/>
</filter>
<filter id="filter3_d_57_269" x="247.165" y="32.8901" width="82.4312" height="86.3413" filterUnits="userSpaceOnUse" color-interpolation-filters="sRGB">
<feFlood flood-opacity="0" result="BackgroundImageFix"/>
<feColorMatrix in="SourceAlpha" type="matrix" values="0 0 0 0 0 0 0 0 0 0 0 0 0 0 0 0 0 0 127 0" result="hardAlpha"/>
<feOffset dx="2" dy="4"/>
<feGaussianBlur stdDeviation="4"/>
<feColorMatrix type="matrix" values="0 0 0 0 0 0 0 0 0 0 0 0 0 0 0 0 0 0 0.2 0"/>
<feBlend mode="normal" in2="BackgroundImageFix" result="effect1_dropShadow_57_269"/>
<feBlend mode="normal" in="SourceGraphic" in2="effect1_dropShadow_57_269" result="shape"/>
</filter>
<filter id="filter4_d_57_269" x="439.044" y="32.7998" width="63.1593" height="86.5918" filterUnits="userSpaceOnUse" color-interpolation-filters="sRGB">
<feFlood flood-opacity="0" result="BackgroundImageFix"/>
<feColorMatrix in="SourceAlpha" type="matrix" values="0 0 0 0 0 0 0 0 0 0 0 0 0 0 0 0 0 0 127 0" result="hardAlpha"/>
<feOffset dx="2" dy="4"/>
<feGaussianBlur stdDeviation="4"/>
<feColorMatrix type="matrix" values="0 0 0 0 0 0 0 0 0 0 0 0 0 0 0 0 0 0 0.2 0"/>
<feBlend mode="normal" in2="BackgroundImageFix" result="effect1_dropShadow_57_269"/>
<feBlend mode="normal" in="SourceGraphic" in2="effect1_dropShadow_57_269" result="shape"/>
</filter>
<filter id="filter5_d_57_269" x="490.621" y="32.8472" width="80.486" height="87.6831" filterUnits="userSpaceOnUse" color-interpolation-filters="sRGB">
<feFlood flood-opacity="0" result="BackgroundImageFix"/>
<feColorMatrix in="SourceAlpha" type="matrix" values="0 0 0 0 0 0 0 0 0 0 0 0 0 0 0 0 0 0 127 0" result="hardAlpha"/>
<feOffset dx="2" dy="4"/>
<feGaussianBlur stdDeviation="4"/>
<feColorMatrix type="matrix" values="0 0 0 0 0 0 0 0 0 0 0 0 0 0 0 0 0 0 0.2 0"/>
<feBlend mode="normal" in2="BackgroundImageFix" result="effect1_dropShadow_57_269"/>
<feBlend mode="normal" in="SourceGraphic" in2="effect1_dropShadow_57_269" result="shape"/>
</filter>
<filter id="filter6_d_57_269" x="569.479" y="32.8101" width="119.417" height="86.5762" filterUnits="userSpaceOnUse" color-interpolation-filters="sRGB">
<feFlood flood-opacity="0" result="BackgroundImageFix"/>
<feColorMatrix in="SourceAlpha" type="matrix" values="0 0 0 0 0 0 0 0 0 0 0 0 0 0 0 0 0 0 127 0" result="hardAlpha"/>
<feOffset dx="2" dy="4"/>
<feGaussianBlur stdDeviation="4"/>
<feColorMatrix type="matrix" values="0 0 0 0 0 0 0 0 0 0 0 0 0 0 0 0 0 0 0.2 0"/>
<feBlend mode="normal" in2="BackgroundImageFix" result="effect1_dropShadow_57_269"/>
<feBlend mode="normal" in="SourceGraphic" in2="effect1_dropShadow_57_269" result="shape"/>
</filter>
<filter id="filter7_d_57_269" x="684.577" y="32.7563" width="83.3297" height="87.7017" filterUnits="userSpaceOnUse" color-interpolation-filters="sRGB">
<feFlood flood-opacity="0" result="BackgroundImageFix"/>
<feColorMatrix in="SourceAlpha" type="matrix" values="0 0 0 0 0 0 0 0 0 0 0 0 0 0 0 0 0 0 127 0" result="hardAlpha"/>
<feOffset dx="2" dy="4"/>
<feGaussianBlur stdDeviation="4"/>
<feColorMatrix type="matrix" values="0 0 0 0 0 0 0 0 0 0 0 0 0 0 0 0 0 0 0.2 0"/>
<feBlend mode="normal" in2="BackgroundImageFix" result="effect1_dropShadow_57_269"/>
<feBlend mode="normal" in="SourceGraphic" in2="effect1_dropShadow_57_269" result="shape"/>
</filter>
<filter id="filter8_d_57_269" x="329.227" y="34.6968" width="39.49" height="84.6689" filterUnits="userSpaceOnUse" color-interpolation-filters="sRGB">
<feFlood flood-opacity="0" result="BackgroundImageFix"/>
<feColorMatrix in="SourceAlpha" type="matrix" values="0 0 0 0 0 0 0 0 0 0 0 0 0 0 0 0 0 0 127 0" result="hardAlpha"/>
<feOffset dx="2" dy="4"/>
<feGaussianBlur stdDeviation="4"/>
<feColorMatrix type="matrix" values="0 0 0 0 0 0 0 0 0 0 0 0 0 0 0 0 0 0 0.2 0"/>
<feBlend mode="normal" in2="BackgroundImageFix" result="effect1_dropShadow_57_269"/>
<feBlend mode="normal" in="SourceGraphic" in2="effect1_dropShadow_57_269" result="shape"/>
</filter>
<filter id="filter9_d_57_269" x="-2" y="-4" width="146" height="146" filterUnits="userSpaceOnUse" color-interpolation-filters="sRGB">
<feFlood flood-opacity="0" result="BackgroundImageFix"/>
<feColorMatrix in="SourceAlpha" type="matrix" values="0 0 0 0 0 0 0 0 0 0 0 0 0 0 0 0 0 0 127 0" result="hardAlpha"/>
<feOffset dx="2" dy="4"/>
<feGaussianBlur stdDeviation="4"/>
<feColorMatrix type="matrix" values="0 0 0 0 0 0 0 0 0 0 0 0 0 0 0 0 0 0 0.2 0"/>
<feBlend mode="normal" in2="BackgroundImageFix" result="effect1_dropShadow_57_269"/>
<feBlend mode="normal" in="SourceGraphic" in2="effect1_dropShadow_57_269" result="shape"/>
</filter>
<clipPath id="clip0_57_269">
<rect width="762" height="138" fill="white"/>
</clipPath>
</defs>
</svg>
